<svg aria-hidden="true" style="position: absolute; width: 0; height: 0; overflow: hidden;" version="1.1" xmlns="http://www.w3.org/2000/svg" xmlns:xlink="http://www.w3.org/1999/xlink">
<defs>
<symbol id="hero-slider-back" viewBox="0 0 17 32">
<path fill="none" stroke="#fff" style="stroke: var(--color1, #fff)" stroke-linejoin="round" stroke-linecap="round" stroke-miterlimit="4" stroke-width="2.4615" d="M16 30.769l-14.769-14.769 14.769-14.769"></path>
</symbol>
<symbol id="hero-slider-forward" viewBox="0 0 17 32">
<path fill="none" stroke="#fff" style="stroke: var(--color1, #fff)" stroke-linejoin="round" stroke-linecap="round" stroke-miterlimit="4" stroke-width="2.4615" d="M1.231 30.769l14.769-14.769-14.769-14.769"></path>
</symbol>
<symbol id="burger" viewBox="0 0 46 32">
<path fill="#fff" style="fill: var(--color1, #fff)" d="M0 2.274c0-1.257 1.019-2.274 2.274-2.274h18.309c0.603 0 1.182 0.24 1.608 0.666s0.666 1.005 0.666 1.608c0 0.603-0.24 1.182-0.666 1.608s-1.005 0.666-1.608 0.666h-18.309c-0.603 0-1.182-0.24-1.608-0.666s-0.666-1.005-0.666-1.608zM0 16c0-1.257 1.019-2.274 2.274-2.274h41.166c0.603 0 1.182 0.24 1.608 0.666s0.666 1.005 0.666 1.608c0 0.603-0.24 1.182-0.666 1.608s-1.005 0.666-1.608 0.666h-41.166c-0.603 0-1.182-0.24-1.608-0.666s-0.666-1.005-0.666-1.608zM2.274 27.451c-0.603 0-1.182 0.24-1.608 0.666s-0.666 1.005-0.666 1.608c0 0.603 0.24 1.182 0.666 1.608s1.005 0.666 1.608 0.666h27.451c0.603 0 1.182-0.24 1.608-0.666s0.666-1.005 0.666-1.608c0-0.603-0.24-1.182-0.666-1.608s-1.005-0.666-1.608-0.666h-27.451z"></path>
</symbol>
<symbol id="cross" viewBox="0 0 32 32">
<path fill="none" stroke="#fff" style="stroke: var(--color1, #fff)" stroke-linejoin="round" stroke-linecap="round" stroke-miterlimit="4" stroke-width="3.1278" d="M30.436 1.564l-28.872 28.872"></path>
<path fill="none" stroke="#fff" style="stroke: var(--color1, #fff)" stroke-linejoin="round" stroke-linecap="round" stroke-miterlimit="4" stroke-width="3.1278" d="M1.564 1.564l28.872 28.872"></path>
</symbol>
<symbol id="heart" viewBox="0 0 36 32">
<path fill="none" stroke="#fff" style="stroke: var(--color1, #fff)" stroke-linejoin="round" stroke-linecap="round" stroke-miterlimit="4" stroke-width="3.1636" d="M32.095 4.128c-0.808-0.808-1.767-1.45-2.823-1.887s-2.187-0.663-3.33-0.663-2.274 0.225-3.33 0.663c-1.056 0.437-2.015 1.079-2.823 1.887l-1.677 1.677-1.677-1.677c-1.632-1.632-3.845-2.549-6.153-2.549s-4.521 0.917-6.153 2.549c-1.632 1.632-2.549 3.845-2.549 6.153s0.917 4.521 2.549 6.153l13.983 13.983 13.983-13.983c0.808-0.808 1.45-1.767 1.887-2.823s0.663-2.187 0.663-3.33-0.225-2.274-0.663-3.33c-0.437-1.056-1.079-2.015-1.887-2.823v0z"></path>
</symbol>
<symbol id="logo" viewBox="0 0 28 32">
<path  d="M21.073 16.002l-3.834-8.783-0.836-0.579-0.98-0.312-1.326-0.357-1.557 0.669-1.038 0.579 3.92 8.783h5.65z"></path>
<path d="M7.314 13.065l3.834 8.803 0.836 0.581 0.98 0.313 1.326 0.357 1.556-0.67 1.038-0.581-3.92-8.803h-5.65z"></path>
<path fill="#fff" style="fill: var(--color2, #fff)" d="M11.297 7.335l-5.952 8.604 5.952 0.064 4.303-8.667c0.302-0.887 1.247-0.369 1.682 0-1.858-3.405-4.764-1.419-5.985 0zM17.066 21.756l5.952-8.604-5.952-0.064-4.303 8.667c-0.302 0.887-1.247 0.369-1.682 0 1.858 3.405 4.764 1.419 5.985 0z"></path>
</symbol>
<symbol id="facebook-logo" viewBox="0 0 13 32">
<path fill="#fff" style="fill: var(--color1, #fff)" opacity="0.8" d="M11.274 0.114c0.342 0 0.683 0 1.367 0v5.125c-0.342 0-1.025 0-1.708 0s-1.367 0-1.708 0.342c-0.342 0.342-0.342 0.683-0.342 1.48 0 0.683 0 1.139 0 1.822h3.758v4.327h-3.758v18.79h-5.808v-18.904h-3.075v-4.327h3.075v-1.48c0-2.505 0.342-4.327 1.025-5.125 1.025-1.48 3.075-2.164 6.149-2.164 0.342 0.114 0.683 0.114 1.025 0.114z"></path>
</symbol>
<symbol id="insta-logo" viewBox="0 0 32 32">
<path fill="#fff" style="fill: var(--color1, #fff)" opacity="0.8" d="M31.897 9.445c-0.020-1.343-0.268-2.675-0.745-3.931-0.833-2.145-2.53-3.841-4.679-4.671-1.242-0.467-2.555-0.717-3.884-0.745-1.709-0.076-2.251-0.098-6.591-0.098s-4.896 0-6.593 0.098c-1.327 0.028-2.641 0.279-3.883 0.745-2.148 0.83-3.847 2.526-4.679 4.671-0.467 1.24-0.72 2.551-0.745 3.876-0.076 1.708-0.1 2.249-0.1 6.582s0 4.886 0.1 6.582c0.027 1.327 0.277 2.636 0.745 3.88 0.833 2.143 2.53 3.839 4.681 4.669 1.237 0.483 2.55 0.756 3.883 0.798 1.711 0.076 2.253 0.099 6.593 0.099s4.896 0 6.593-0.099c1.327-0.027 2.641-0.277 3.884-0.743 2.148-0.832 3.845-2.528 4.679-4.671 0.467-1.242 0.718-2.551 0.745-3.88 0.076-1.707 0.1-2.248 0.1-6.582-0.004-4.332-0.004-4.882-0.103-6.58zM15.988 24.164c-4.538 0-8.215-3.671-8.215-8.201s3.677-8.201 8.215-8.201c4.535 0 8.215 3.671 8.215 8.201s-3.68 8.201-8.215 8.201zM24.53 9.37c-1.061 0-1.916-0.855-1.916-1.912s0.855-1.912 1.916-1.912c1.057 0 1.914 0.855 1.914 1.912s-0.857 1.912-1.914 1.912z"></path>
<path fill="#fff" style="fill: var(--color1, #fff)" opacity="0.8" d="M15.99 20.97c2.764 0 5.005-2.241 5.005-5.005s-2.241-5.005-5.005-5.005c-2.764 0-5.005 2.241-5.005 5.005s2.241 5.005 5.005 5.005z"></path>
</symbol>
<symbol id="youtube-logo" viewBox="0 0 45 32">
<path fill="#fff" style="fill: var(--color1, #fff)" opacity="0.8" d="M35.984 0.257c-2.185-0.129-6.683-0.257-13.494-0.257h-0.9c-6.554 0-10.924 0.129-13.108 0.386-2.956 0.257-5.012 1.028-6.169 2.056-1.028 0.9-1.799 2.57-2.056 4.755-0.129 1.414-0.257 4.37-0.257 8.868v0.643c0 4.241 0.129 7.197 0.386 8.61 0.386 2.056 1.028 3.598 2.313 4.498 1.285 1.028 3.47 1.671 6.554 1.928 2.185 0.128 6.683 0.257 13.494 0.257h0.9c6.554 0 10.924-0.128 13.108-0.386 2.956-0.257 5.012-1.028 6.169-2.056 1.028-0.9 1.799-2.57 2.056-4.755 0.129-1.414 0.257-4.369 0.257-8.867v-0.643c0-4.241-0.129-7.197-0.386-8.611-0.386-2.056-1.028-3.598-2.313-4.498-1.285-1.028-3.47-1.671-6.554-1.928zM30.972 16.064l-14.137 8.482v-16.964l14.137 8.482z"></path>
</symbol>
</defs>
</svg>
