<svg aria-hidden="true" style="position: absolute; width: 0; height: 0; overflow: hidden;" version="1.1" xmlns="http://www.w3.org/2000/svg" xmlns:xlink="http://www.w3.org/1999/xlink">
<defs>
<symbol id="facebook" viewBox="0 0 32 32">
<path d="M19.52 4.64c0.24 0 0.48 0 0.96 0v3.6c-0.24 0-0.72 0-1.2 0s-0.96 0-1.2 0.24c-0.24 0.24-0.24 0.48-0.24 1.040 0 0.48 0 0.8 0 1.28h2.64v3.040h-2.64v13.2h-4.080v-13.28h-2.16v-3.040h2.16v-1.040c0-1.76 0.24-3.040 0.72-3.6 0.72-1.040 2.16-1.52 4.32-1.52 0.24 0.080 0.48 0.080 0.72 0.080z"></path>
</symbol>
<symbol id="youtube" viewBox="0 0 45 32">
<path d="M35.984 0.257c-2.185-0.129-6.683-0.257-13.494-0.257h-0.9c-6.554 0-10.924 0.129-13.108 0.386-2.956 0.257-5.012 1.028-6.169 2.056-1.028 0.9-1.799 2.57-2.056 4.755-0.129 1.414-0.257 4.37-0.257 8.868v0.643c0 4.241 0.129 7.197 0.386 8.61 0.386 2.056 1.028 3.598 2.313 4.498 1.285 1.028 3.47 1.671 6.554 1.928 2.185 0.128 6.683 0.257 13.494 0.257h0.9c6.554 0 10.924-0.128 13.108-0.386 2.956-0.257 5.012-1.028 6.169-2.056 1.028-0.9 1.799-2.57 2.056-4.755 0.129-1.414 0.257-4.369 0.257-8.867v-0.643c0-4.241-0.129-7.197-0.386-8.611-0.386-2.056-1.028-3.598-2.313-4.498-1.285-1.028-3.47-1.671-6.554-1.928zM30.972 16.064l-14.137 8.482v-16.964l14.137 8.482z"></path>
</symbol>
<symbol id="insta" viewBox="0 0 32 32">
<path d="M31.897 9.445c-0.020-1.343-0.268-2.675-0.745-3.931-0.833-2.145-2.53-3.841-4.679-4.671-1.242-0.467-2.555-0.717-3.884-0.745-1.709-0.076-2.251-0.098-6.591-0.098s-4.896 0-6.593 0.098c-1.327 0.028-2.641 0.279-3.883 0.745-2.148 0.83-3.847 2.526-4.679 4.671-0.467 1.24-0.72 2.551-0.745 3.876-0.076 1.708-0.1 2.249-0.1 6.582s0 4.886 0.1 6.582c0.027 1.327 0.277 2.636 0.745 3.88 0.833 2.143 2.53 3.839 4.681 4.669 1.237 0.483 2.55 0.756 3.883 0.798 1.711 0.076 2.253 0.099 6.593 0.099s4.896 0 6.593-0.099c1.327-0.027 2.641-0.277 3.884-0.743 2.148-0.832 3.845-2.528 4.679-4.671 0.467-1.242 0.718-2.551 0.745-3.88 0.076-1.707 0.1-2.248 0.1-6.582-0.004-4.332-0.004-4.882-0.103-6.58zM15.988 24.164c-4.538 0-8.215-3.671-8.215-8.201s3.677-8.201 8.215-8.201c4.535 0 8.215 3.671 8.215 8.201s-3.68 8.201-8.215 8.201zM24.53 9.37c-1.061 0-1.916-0.855-1.916-1.912s0.855-1.912 1.916-1.912c1.057 0 1.914 0.855 1.914 1.912s-0.857 1.912-1.914 1.912z"></path>
<path d="M15.99 20.97c2.764 0 5.005-2.241 5.005-5.005s-2.241-5.005-5.005-5.005c-2.764 0-5.005 2.241-5.005 5.005s2.241 5.005 5.005 5.005z"></path>
</symbol>
<symbol id="icon-heart" viewBox="0 0 36 32">
<path d="M32.095 4.128c-0.808-0.808-1.767-1.45-2.823-1.887s-2.187-0.663-3.33-0.663-2.274 0.225-3.33 0.663c-1.056 0.437-2.015 1.079-2.823 1.887l-1.677 1.677-1.677-1.677c-1.632-1.632-3.845-2.549-6.153-2.549s-4.521 0.917-6.153 2.549c-1.632 1.632-2.549 3.845-2.549 6.153s0.917 4.521 2.549 6.153l13.983 13.983 13.983-13.983c0.808-0.808 1.45-1.767 1.887-2.823s0.663-2.187 0.663-3.33-0.225-2.274-0.663-3.33c-0.437-1.056-1.079-2.015-1.887-2.823v0z"></path>
</symbol>
<symbol id="icon-cross" viewBox="0 0 32 32" >
<path d="M30.436 1.564l-28.872 28.872"></path>
<path d="M1.564 1.564l28.872 28.872"></path> 
</symbol>
<symbol id="icon-burger" viewBox="0 0 32 32">
<path d="M2.667 7.993c0-0.733 0.595-1.327 1.327-1.327h10.68c0.352 0 0.689 0.14 0.938 0.389s0.389 0.586 0.389 0.938c0 0.352-0.14 0.689-0.389 0.938s-0.586 0.389-0.938 0.389h-10.68c-0.352 0-0.689-0.14-0.938-0.389s-0.389-0.586-0.389-0.938zM2.667 16c0-0.733 0.595-1.327 1.327-1.327h24.013c0.352 0 0.689 0.14 0.938 0.389s0.389 0.586 0.389 0.938c0 0.352-0.14 0.689-0.389 0.938s-0.586 0.389-0.938 0.389h-24.013c-0.352 0-0.689-0.14-0.938-0.389s-0.389-0.586-0.389-0.938zM3.993 22.68c-0.352 0-0.689 0.14-0.938 0.389s-0.389 0.586-0.389 0.938c0 0.352 0.14 0.689 0.389 0.938s0.586 0.389 0.938 0.389h16.013c0.352 0 0.689-0.14 0.938-0.389s0.389-0.586 0.389-0.938c0-0.352-0.14-0.689-0.389-0.938s-0.586-0.389-0.938-0.389h-16.013z"></path>
</symbol>
<symbol id="icon-hero-slider-back" viewBox="0 0 32 32">
<path d="m20 24-8-8 8-8"/>
</symbol>
<symbol id="icon-hero-slider-forward" viewBox="0 0 32 32">
<path d="m12 24 8-8-8-8"/>
</symbol>
<symbol id="icon-closs-bur" viewBox="0 0 32 32">
<path d="M24 8l-16 16M8 8l16 16"></path>
</symbol>
</defs>
</svg>

